:SAMPLES-PER-SECOND 30
:FULLY-SPECIFIED
:DEGREES
525
root  -4.78295 38.482 -6.61921 173.901 -85.5932 -179.333
RightUpLeg  -18.9221 -19.5031 -9.69215
RightLeg  14.8051 -6.99266 -0.278001
RightFoot  11.1508 -0.14207 1.11019
RightToes  0.00048216 0.542163 -0.142577
Spine  15.0516 -1.57506 6.64844
Spine1  11.0121 1.44044 -7.0094
HEad  26.2994 40.5904 -8.77287
LeftShoulder1  4.70835 -7.50246 -36.6367
LeftArm  -26.2324 20.2064 -28.3229
LeftForeArm  44.1839 -64.2004 -18.9105
LeftHand  -0.25398 0.0180481 5.50724
RightShoulder  5.31499 9.52522 34.8343
RightArm  9.69352 -31.2032 36.5043
RightForeArm  -11.0453 25.3066 5.96598
RightHand  -1.03352 1.13504 -18.4062
LeftUpLeg  11.4308 -2.49627 13.4418
LeftLeg  25.7467 4.09251 2.49792
LeftFoot  -13.0319 -0.171673 -18.2812
LeftToes  1.06244e-005 4.65856e-005 -8.18505e-006
526
root  -3.44855 38.3371 -5.58129 -168.387 -85.9197 163.239
RightUpLeg  -19.1411 -17.9994 -12.6395
RightLeg  11.0094 -8.5683 0.57316
RightFoot  10.7871 -0.530347 3.10622
RightToes  0.00048216 0.542163 -0.142577
Spine  15.9193 -1.16489 4.13053
Spine1  10.963 1.20272 -6.33251
HEad  24.6559 37.7774 -9.5749
LeftShoulder1  4.87868 -7.77301 -37.1082
LeftArm  -26.0801 19.1224 -28.7632
LeftForeArm  42.244 -61.7969 -16.9682
LeftHand  -0.25398 0.0180481 5.50724
RightShoulder  5.47214 9.68394 35.5232
RightArm  8.69341 -31.404 35.8377
RightForeArm  -9.924 23.8117 5.62589
RightHand  -0.799062 0.117378 -16.8367
LeftUpLeg  11.4001 2.60888 12.4778
LeftLeg  22.0613 1.70848 1.08286
LeftFoot  -18.7831 -0.997853 -17.1703
LeftToes  1.06244e-005 4.65856e-005 -8.18505e-006
527
root  -2.0905 38.3148 -4.59518 -149.028 -85.6343 144.189
RightUpLeg  -18.727 -15.6015 -15.5396
RightLeg  6.17952 -9.59887 1.54214
RightFoot  7.35406 -0.616789 4.05179
RightToes  0.00048216 0.542163 -0.142577
Spine  16.7436 -0.548522 1.37095
Spine1  11.0598 1.09895 -5.26844
HEad  23.7564 34.4128 -9.80176
LeftShoulder1  5.08275 -8.08799 -37.678
LeftArm  -25.4548 17.8255 -29.0225
LeftForeArm  39.1596 -57.0876 -13.9776
LeftHand  -0.25398 0.0180481 5.50724
RightShoulder  5.57525 9.72459 36.162
RightArm  5.20364 -30.5148 35.9648
RightForeArm  -7.28323 21.2268 5.51206
RightHand  -0.701555 -0.366712 -16.1619
LeftUpLeg  9.40425 5.60829 10.0553
LeftLeg  21.3443 0.773755 0.66818
LeftFoot  -21.3398 -1.03584 -13.1736
LeftToes  1.06244e-005 4.65856e-005 -8.18505e-006
528
root  -0.876395 38.411 -3.71003 -140.278 -85.0849 135.921
RightUpLeg  -18.2743 -14.7045 -16.6155
RightLeg  1.63599 -7.90161 1.87728
RightFoot  3.45508 -0.62247 4.98096
RightToes  0.00048216 0.542163 -0.142577
Spine  16.9311 -0.115408 0.0266974
Spine1  11.0832 1.30826 -5.07252
HEad  24.628 30.9316 -9.11916
LeftShoulder1  5.15599 -8.08803 -38.2849
LeftArm  -24.006 16.3698 -28.823
LeftForeArm  35.3687 -49.4857 -10.4704
LeftHand  -0.25398 0.0180481 5.50724
RightShoulder  5.5236 9.49916 36.4861
RightArm  -1.36802 -29.2954 37.1855
RightForeArm  -3.01304 18.2699 5.86912
RightHand  -0.767984 -0.129059 -16.9036
LeftUpLeg  6.41717 5.25376 7.10264
LeftLeg  22.3583 1.83477 1.17201
LeftFoot  -21.7184 -0.886508 -11.1535
LeftToes  1.06244e-005 4.65856e-005 -8.18505e-006
529
root  0.137116 38.6369 -2.94716 -145.039 -84.329 141.142
RightUpLeg  -18.4946 -14.0446 -16.0435
RightLeg  0.834928 -5.95488 1.7325
RightFoot  1.22349 -0.67764 6.20874
RightToes  0.00048216 0.542163 -0.142577
Spine  16.6769 0.193899 0.515539
Spine1  10.8974 2.04744 -6.22574
HEad  26.5733 27.8672 -8.03672
LeftShoulder1  5.12456 -7.84992 -38.9064
LeftArm  -22.2663 15.3758 -28.3637
LeftForeArm  31.2214 -39.8899 -7.36154
LeftHand  -0.25398 0.0180481 5.50724
RightShoulder  5.4234 9.23766 36.5691
RightArm  -6.4655 -28.5109 38.8636
RightForeArm  -0.944215 16.9398 5.85349
RightHand  -0.777008 -0.217345 -17.3847
LeftUpLeg  3.94428 4.89453 5.21204
LeftLeg  23.0849 3.05154 1.76377
LeftFoot  -20.8614 -0.774273 -10.7701
LeftToes  1.06244e-005 4.65856e-005 -8.18505e-006
530
root  1.00559 38.9917 -2.31518 -156.661 -83.2204 152.928
RightUpLeg  -19.2225 -13.3404 -14.2243
RightLeg  4.866 -4.78127 1.3807
RightFoot  0.626836 -0.706155 6.76456
RightToes  0.00048216 0.542163 -0.142577
Spine  16.4759 0.50305 1.70844
Spine1  10.6868 2.9528 -7.67612
HEad  27.8598 25.7429 -7.24319
LeftShoulder1  5.14359 -7.73464 -39.5039
LeftArm  -21.1396 15.7527 -28.0061
LeftForeArm  26.4255 -30.2864 -5.10713
LeftHand  -0.25398 0.0180481 5.50724
RightShoulder  5.43814 9.26501 36.5928
RightArm  -6.98842 -28.0568 39.9577
RightForeArm  -1.81648 18.1588 5.53801
RightHand  -0.590157 -1.19163 -16.0619
LeftUpLeg  2.91903 6.55486 4.67413
LeftLeg  22.0744 3.61284 1.96151
LeftFoot  -18.9257 -0.530348 -9.64862
LeftToes  1.06244e-005 4.65856e-005 -8.18505e-006
531
root  1.76679 39.3834 -1.82508 -165.411 -82.2544 161.649
RightUpLeg  -19.5523 -14.0941 -11.502
RightLeg  11.244 -2.36257 0.550993
RightFoot  0.370082 -0.690569 6.74786
RightToes  0.00048216 0.542163 -0.142577
Spine  16.2479 0.613339 2.17152
Spine1  10.5818 3.28536 -8.30767
HEad  27.6389 24.6478 -6.88023
LeftShoulder1  5.28322 -7.88953 -40.0772
LeftArm  -20.386 17.6632 -27.8374
LeftForeArm  20.8754 -21.903 -3.65043
LeftHand  -0.25398 0.0180481 5.50724
RightShoulder  5.52146 9.47819 36.5372
RightArm  -4.74007 -27.4445 40.0962
RightForeArm  -2.80737 21.2549 5.18375
RightHand  -0.382523 -2.27234 -13.8601
LeftUpLeg  2.96414 8.68422 4.83311
LeftLeg  19.6467 3.5908 1.67936
LeftFoot  -16.4934 -0.257416 -7.91759
LeftToes  1.06244e-005 4.65856e-005 -8.18505e-006
532
root  2.44508 39.7325 -1.43536 -170.569 -82.0674 166.99
RightUpLeg  -19.1015 -14.513 -9.15059
RightLeg  17.64 0.352063 -0.0838761
RightFoot  -0.655117 -0.671364 7.13216
RightToes  0.00048216 0.542163 -0.142577
Spine  15.6773 0.387809 1.94164
Spine1  10.4528 2.87504 -8.00725
HEad  26.4775 24.0494 -6.60833
LeftShoulder1  5.45418 -8.13992 -40.526
LeftArm  -19.109 20.3801 -27.867
LeftForeArm  15.9145 -14.7508 -3.04046
LeftHand  -0.25398 0.0180481 5.50724
RightShoulder  5.4972 9.50152 36.2802
RightArm  -3.93408 -26.6634 39.7278
RightForeArm  -1.55993 25.1212 5.4127
RightHand  -0.331291 -2.54977 -13.0288
LeftUpLeg  2.97865 9.09036 5.14815
LeftLeg  16.9493 3.76754 0.991479
LeftFoot  -14.3264 -0.0956324 -7.01664
LeftToes  1.06244e-005 4.65856e-005 -8.18505e-006
533
root  3.06558 40.0022 -1.11429 -173.614 -82.2573 170.532
RightUpLeg  -18.124 -12.0918 -8.08074
RightLeg  23.5127 0.781053 0.141915
RightFoot  -2.22482 -0.65998 8.07758
RightToes  0.00048216 0.542163 -0.142577
Spine  14.8077 0.121763 1.51979
Spine1  10.1472 2.28674 -7.34709
HEad  25.0866 23.2595 -6.1328
LeftShoulder1  5.56937 -8.33841 -40.7052
LeftArm  -17.263 23.2885 -28.1154
LeftForeArm  13.2942 -9.16055 -3.11734
LeftHand  -0.25398 0.0180481 5.50724
RightShoulder  5.362 9.29027 35.9307
RightArm  -5.15627 -26.0474 39.3143
RightForeArm  0.0357249 29.2077 6.34386
RightHand  -0.407567 -2.17427 -14.2779
LeftUpLeg  2.48044 8.55351 5.36097
LeftLeg  14.6745 4.1923 0.140668
LeftFoot  -12.6293 -0.000833193 -6.78427
LeftToes  1.06244e-005 4.65856e-005 -8.18505e-006
534
root  3.65212 40.1693 -0.867236 -173.557 -82.1904 171.026
RightUpLeg  -17.0753 -9.25743 -7.20649
RightLeg  28.7241 0.89587 0.296341
RightFoot  -3.3907 -0.634529 8.77267
RightToes  0.00048216 0.542163 -0.142577
Spine  13.8884 0.138582 0.819881
Spine1  9.82257 2.01417 -6.77322
HEad  23.4387 21.8805 -5.46644
LeftShoulder1  5.66792 -8.53693 -40.7479
LeftArm  -15.5781 26.3069 -28.4266
LeftForeArm  13.2831 -6.19652 -3.26464
LeftHand  -0.25398 0.0180481 5.50724
RightShoulder  5.27404 9.1313 35.7659
RightArm  -6.47946 -25.5354 38.8015
RightForeArm  0.0392024 33.1523 7.35679
RightHand  -0.556642 -1.4745 -16.2659
LeftUpLeg  1.73049 8.24801 5.23606
LeftLeg  12.9729 4.80408 -0.707142
LeftFoot  -11.236 0.0728492 -6.34219
LeftToes  1.06244e-005 4.65856e-005 -8.18505e-006
535
root  4.21049 40.2441 -0.684925 -169.942 -81.9626 167.875
RightUpLeg  -15.6508 -6.35667 -6.6395
RightLeg  32.5621 0.692499 0.235699
RightFoot  -3.96096 -0.584285 8.63307
RightToes  0.00048216 0.542163 -0.142577
Spine  13.0373 0.347733 -0.118049
Spine1  9.67724 2.02295 -6.44383
HEad  21.3472 19.8084 -4.74827
LeftShoulder1  5.82155 -8.79627 -40.9913
LeftArm  -15.0575 29.2714 -28.4334
LeftForeArm  15.3199 -6.0532 -3.23499
LeftHand  -0.25398 0.0180481 5.50724
RightShoulder  5.26909 9.10199 35.8222
RightArm  -7.36219 -24.695 38.0961
RightForeArm  -0.198884 36.2494 8.24054
RightHand  -0.772022 -0.342578 -17.6912
LeftUpLeg  0.886736 7.82525 4.65801
LeftLeg  11.7862 5.61274 -1.43448
LeftFoot  -10.1186 0.125403 -6.02767
LeftToes  1.06244e-005 4.65856e-005 -8.18505e-006
536
root  4.72386 40.2562 -0.538487 -163.832 -81.9589 162.269
RightUpLeg  -13.4247 -4.294 -6.32798
RightLeg  33.6892 0.740016 0.279425
RightFoot  -5.2205 -0.448094 7.68272
RightToes  0.00048216 0.542163 -0.142577
Spine  12.2044 0.527321 -0.806816
Spine1  9.57267 2.14126 -6.44568
HEad  19.0255 17.107 -4.04911
LeftShoulder1  6.00309 -9.05957 -41.4193
LeftArm  -15.0433 31.6658 -28.1236
LeftForeArm  17.5584 -7.41237 -3.17607
LeftHand  -0.25398 0.0180481 5.50724
RightShoulder  5.22662 8.99766 35.8307
RightArm  -7.75052 -23.5032 37.4529
RightForeArm  0.00563466 38.0956 8.78777
RightHand  -1.01466 0.993878 -18.486
LeftUpLeg  -0.215911 7.36371 3.81972
LeftLeg  11.0757 5.89519 -2.02944
LeftFoot  -9.38214 0.166122 -6.41737
LeftToes  1.06244e-005 4.65856e-005 -8.18505e-006
537
root  5.19015 40.261 -0.411427 -156.149 -82.1754 155.179
RightUpLeg  -10.1355 -3.44677 -6.17016
RightLeg  30.9274 0.534021 0.118032
RightFoot  -8.36122 -0.213604 5.80189
RightToes  0.00048216 0.542163 -0.142577
Spine  11.4033 0.672483 -0.866771
Spine1  9.29852 2.37453 -6.65804
HEad  16.6799 14.0194 -3.45707
LeftShoulder1  6.12999 -9.25957 -41.6512
LeftArm  -15.1096 33.1328 -27.9552
LeftForeArm  18.5985 -8.72319 -3.19054
LeftHand  -0.25398 0.0180481 5.50724
RightShoulder  5.13702 8.81599 35.7228
RightArm  -7.74735 -22.38 36.8806
RightForeArm  -0.00475265 38.9937 9.07314
RightHand  -1.1608 1.7135 -19.0419
LeftUpLeg  -1.32418 7.12908 2.93517
LeftLeg  10.2304 5.59284 -2.67195
LeftFoot  -8.67637 0.216482 -7.06409
LeftToes  1.06244e-005 4.65856e-005 -8.18505e-006
538
root  5.63544 40.3149 -0.307052 -148.362 -82.3881 147.834
RightUpLeg  -6.27748 -3.43658 -6.08385
RightLeg  24.8767 -0.808727 -0.606761
RightFoot  -12.0695 -0.0644076 2.91582
RightToes  0.00048216 0.542163 -0.142577
Spine  10.8706 0.820763 -0.175549
Spine1  8.93949 2.74478 -6.94988
HEad  14.2143 10.9267 -3.20656
LeftShoulder1  6.20009 -9.40078 -41.6689
LeftArm  -15.6838 33.5993 -28.2105
LeftForeArm  18.0094 -9.67038 -3.10363
LeftHand  -0.25398 0.0180481 5.50724
RightShoulder  5.14793 8.81291 35.8187
RightArm  -7.42013 -21.368 35.9962
RightForeArm  -0.524746 39.3869 9.23141
RightHand  -1.12358 1.39597 -19.262
LeftUpLeg  -1.82914 6.82975 2.10485
LeftLeg  8.5074 5.41862 -3.32487
LeftFoot  -7.42768 0.29628 -7.36756
LeftToes  1.06244e-005 4.65856e-005 -8.18505e-006
539
root  6.09728 40.4172 -0.210322 -144.084 -82.6194 143.712
RightUpLeg  -3.34531 -4.30933 -5.9195
RightLeg  18.6458 -2.02535 -1.04621
RightFoot  -13.7287 -0.0895244 -0.146579
RightToes  0.00048216 0.542163 -0.142577
Spine  10.8436 0.884794 1.69713
Spine1  8.67809 3.22309 -7.635
HEad  11.6332 8.14286 -3.55565
LeftShoulder1  6.2959 -9.51803 -41.9519
LeftArm  -16.9308 32.9886 -28.691
LeftForeArm  16.3799 -10.827 -2.88854
LeftHand  -0.25398 0.0180481 5.50724
RightShoulder  5.28487 9.01183 36.2389
RightArm  -6.8665 -19.923 34.7619
RightForeArm  -0.926153 39.0567 9.14993
RightHand  -1.00853 0.773502 -18.9983
LeftUpLeg  -1.91427 6.14054 1.62724
LeftLeg  6.49305 5.81582 -3.65559
LeftFoot  -5.74274 0.394425 -7.35978
LeftToes  1.06244e-005 4.65856e-005 -8.18505e-006
